<svg width="25" height="25" viewBox="0 0 25 25" fill="none" xmlns="http://www.w3.org/2000/svg">
<path fill-rule="evenodd" clip-rule="evenodd" d="M12.5 25C19.4036 25 25 19.4036 25 12.5C25 5.59644 19.4036 0 12.5 0C5.59644 0 0 5.59644 0 12.5C0 19.4036 5.59644 25 12.5 25ZM8.55822 12.4972C8.55822 10.3144 10.3189 8.55369 12.5018 8.55369C14.6846 8.55369 16.4453 10.3144 16.4453 12.4972C16.4453 14.6801 14.6846 16.4408 12.5018 16.4408C10.3189 16.4408 8.55822 14.6801 8.55822 12.4972ZM9.93795 12.4972C9.93795 13.9113 11.0911 15.061 12.5018 15.061C13.9124 15.061 15.0656 13.9113 15.0656 12.4972C15.0656 11.0832 13.9158 9.93342 12.5018 9.93342C11.0877 9.93342 9.93795 11.0832 9.93795 12.4972ZM16.6066 9.3122C17.1146 9.3122 17.5264 8.90377 17.5264 8.39238C17.5264 7.88442 17.1146 7.47256 16.6066 7.47256C16.0987 7.47256 15.6868 7.88442 15.6868 8.39238C15.6868 8.90034 16.0952 9.3122 16.6066 9.3122ZM18.8959 6.10314C19.7985 7.00236 20.08 8.09378 20.1383 9.32592C20.2104 10.5958 20.2104 14.3986 20.1383 15.6685C20.0765 16.9007 19.7951 17.9921 18.8959 18.8913C17.9966 19.794 16.9052 20.0754 15.6731 20.1338C14.4032 20.2058 10.5969 20.2058 9.32702 20.1338C8.09488 20.072 7.00689 19.7906 6.10423 18.8913C5.20158 17.9921 4.92014 16.9007 4.8618 15.6685C4.78972 14.3986 4.78972 10.5924 4.8618 9.32249C4.92357 8.09035 5.20158 6.99893 6.10423 6.0997C7.00689 5.20048 8.09831 4.91904 9.32702 4.8607C10.5969 4.78862 14.4032 4.78862 15.6731 4.8607C16.9052 4.92248 17.9966 5.20391 18.8959 6.10314ZM17.0356 18.4932C17.7118 18.2221 18.23 17.7038 18.4977 17.0311C18.8422 16.1656 18.823 14.2725 18.8106 13.0452C18.8085 12.8417 18.8066 12.6564 18.8066 12.4972C18.8066 12.338 18.8085 12.1528 18.8106 11.9493C18.823 10.7227 18.8421 8.83177 18.4977 7.96336C18.2266 7.28723 17.7083 6.76897 17.0356 6.50127C16.1674 6.15871 14.2651 6.17696 13.0382 6.18872C12.8392 6.19063 12.6579 6.19237 12.5018 6.19237C12.3425 6.19237 12.1573 6.1905 11.9538 6.18843C10.7273 6.17601 8.8363 6.15685 7.96789 6.50127C7.29176 6.7724 6.7735 7.29066 6.5058 7.96336C6.16324 8.83157 6.18149 10.7339 6.19325 11.9608C6.19516 12.1598 6.1969 12.3411 6.1969 12.4972C6.1969 12.6565 6.19503 12.8417 6.19296 13.0452C6.18054 14.2717 6.16138 16.1627 6.5058 17.0311C6.77694 17.7072 7.29519 18.2255 7.96789 18.4932C8.8361 18.8358 10.7384 18.8175 11.9653 18.8057C12.1643 18.8038 12.3456 18.8021 12.5018 18.8021C12.661 18.8021 12.8462 18.804 13.0497 18.806C14.2763 18.8185 16.1672 18.8376 17.0356 18.4932Z" fill="black"/>
</svg>
