<svg width="52" height="51" viewBox="0 0 52 51" fill="none" xmlns="http://www.w3.org/2000/svg">
<path d="M26 19.9153V49.6772M26 19.9153L1 10.7884M26 19.9153L51 10.7884M26 49.6772V49.6772C25.0376 49.6772 24.0828 49.5067 23.1799 49.1735L3.48167 41.9039C2.7285 41.6259 2.08285 41.1163 1.63752 40.4483V40.4483C1.22182 39.8248 1 39.0922 1 38.3428V10.7884M26 49.6772V49.6772C26.9624 49.6772 27.9172 49.5067 28.8201 49.1735L48.5183 41.9039C49.2715 41.6259 49.9172 41.1163 50.3625 40.4483V40.4483C50.7782 39.8248 51 39.0922 51 38.3428V10.7884M1 10.7884V10.7884C1.24706 9.71778 2.02538 8.84843 3.06222 8.48494L22.9148 1.52513C23.9063 1.17754 24.9494 1 26 1V1V1C27.0506 1 28.0937 1.17754 29.0852 1.52513L48.9378 8.48494C49.9746 8.84843 50.7529 9.71778 51 10.7884V10.7884" stroke="black" stroke-width="2"/>
</svg>
