<svg width="52" height="47" viewBox="0 0 52 47" fill="none" xmlns="http://www.w3.org/2000/svg">
<path d="M38.5 30.7619V45.6428M38.5 30.7619L26 26.1984M38.5 30.7619L51 26.1984M38.5 45.6428V45.6428C38.0188 45.6428 37.5414 45.5575 37.09 45.3909L27.2408 41.7561C26.8642 41.6172 26.5414 41.3624 26.3188 41.0284V41.0284C26.1109 40.7166 26 40.3503 26 39.9756V26.1984M38.5 45.6428V45.6428C38.9812 45.6428 39.4586 45.5575 39.91 45.3909L49.7592 41.7561C50.1358 41.6172 50.4586 41.3624 50.6812 41.0284V41.0284C50.8891 40.7166 51 40.3503 51 39.9756V26.1984M26 26.1984V26.1984C26.297 25.6044 26.8129 25.149 27.4391 24.9279L36.9579 21.5684C37.4533 21.3935 37.9747 21.3042 38.5 21.3042V21.3042V21.3042C39.0253 21.3042 39.5469 21.393 40.0426 21.5668L49.9689 25.0467C50.4873 25.2284 50.8765 25.6631 51 26.1984V26.1984M26 26.1984V39.9756C26 40.3503 25.8891 40.7166 25.6812 41.0284C25.4586 41.3624 25.1358 41.6172 24.7592 41.7561L14.91 45.3909C14.4586 45.5575 13.9812 45.6428 13.5 45.6428M26 26.1984L13.5 30.7619M26 26.1984C25.8765 25.6631 25.4873 25.2284 24.9689 25.0467L15.0426 21.5668C14.5469 21.393 14.0253 21.3042 13.5 21.3042C12.9747 21.3042 12.4531 21.393 11.9574 21.5668L2.03111 25.0467C1.51269 25.2284 1.12353 25.6631 1 26.1984M26 26.1984V10.4577M13.5 30.7619V45.6428M13.5 30.7619L1 26.1984M13.5 45.6428C13.0188 45.6428 12.5414 45.5575 12.09 45.3909L2.24083 41.7561C1.86425 41.6172 1.54142 41.3624 1.31876 41.0284C1.11091 40.7166 1 40.3503 1 39.9756V26.1984M26 10.4577L13.5 5.89418M26 10.4577L38.5 5.89418M13.5 5.89418V19.6714C13.5 20.0461 13.6109 20.4124 13.8188 20.7242C14.0414 21.0582 14.3642 21.313 14.7408 21.4519M13.5 5.89418C13.6235 5.35889 14.0127 4.92421 14.5311 4.74247L24.4574 1.26257C24.9531 1.08877 25.4747 1 26 1C26.5253 1 27.0469 1.08877 27.5426 1.26257L37.4689 4.74247C37.9873 4.92421 38.3765 5.35889 38.5 5.89418M38.5 5.89418V19.6714C38.5 20.0461 38.3891 20.4124 38.1812 20.7242C37.9586 21.0582 37.6357 21.313 37.2592 21.4519" stroke="black" stroke-width="2"/>
</svg>
