<svg width="138" height="70" viewBox="0 0 138 70" fill="none" xmlns="http://www.w3.org/2000/svg">
<g filter="url(#filter0_d_225_1617)">
<path d="M68.8496 46.2115V52.6147H67.5347V46.2115H68.8496ZM72.8165 46.2115V52.6147H71.5016V46.2115H72.8165ZM74.7868 46.2115V47.245H69.5621V46.2115H74.7868ZM80.0334 51.5417V49.4219C80.0334 49.2694 80.0085 49.139 79.9587 49.0305C79.9088 48.9191 79.8311 48.8326 79.7256 48.771C79.6229 48.7094 79.4895 48.6787 79.3254 48.6787C79.1846 48.6787 79.063 48.7036 78.9603 48.7534C78.8577 48.8003 78.7786 48.8692 78.7229 48.9601C78.6671 49.0481 78.6393 49.1522 78.6393 49.2724H77.3727C77.3727 49.0701 77.4196 48.878 77.5134 48.6962C77.6073 48.5145 77.7436 48.3547 77.9224 48.2169C78.1013 48.0761 78.3139 47.9662 78.5601 47.887C78.8093 47.8079 79.0879 47.7683 79.3957 47.7683C79.7651 47.7683 80.0935 47.8299 80.3808 47.953C80.6682 48.0761 80.8939 48.2609 81.0581 48.5071C81.2252 48.7534 81.3088 49.0613 81.3088 49.4307V51.4669C81.3088 51.7278 81.3249 51.9419 81.3572 52.109C81.3894 52.2732 81.4363 52.4168 81.4979 52.54V52.6147H80.2181C80.1566 52.4857 80.1096 52.3245 80.0774 52.131C80.0481 51.9345 80.0334 51.7381 80.0334 51.5417ZM80.2005 49.7166L80.2093 50.4334H79.5013C79.3342 50.4334 79.189 50.4525 79.0659 50.4906C78.9427 50.5287 78.8416 50.5829 78.7624 50.6533C78.6833 50.7207 78.6246 50.7999 78.5865 50.8908C78.5513 50.9817 78.5337 51.0814 78.5337 51.1898C78.5337 51.2983 78.5587 51.3965 78.6085 51.4845C78.6583 51.5695 78.7302 51.637 78.824 51.6868C78.9178 51.7337 79.0278 51.7572 79.1538 51.7572C79.3444 51.7572 79.5101 51.719 79.6508 51.6428C79.7915 51.5666 79.9 51.4728 79.9762 51.3614C80.0554 51.2499 80.0965 51.1444 80.0994 51.0447L80.4336 51.5812C80.3867 51.7015 80.3222 51.8261 80.2401 51.9551C80.161 52.0841 80.0598 52.2057 79.9367 52.3201C79.8135 52.4315 79.6655 52.5239 79.4925 52.5972C79.3195 52.6675 79.1143 52.7027 78.8768 52.7027C78.5748 52.7027 78.3007 52.6426 78.0544 52.5224C77.811 52.3993 77.6175 52.2307 77.4739 52.0166C77.3331 51.7997 77.2628 51.5534 77.2628 51.2778C77.2628 51.0286 77.3097 50.8072 77.4035 50.6137C77.4973 50.4202 77.6351 50.2575 77.8169 50.1256C78.0016 49.9907 78.2318 49.8895 78.5074 49.8221C78.783 49.7517 79.1025 49.7166 79.4661 49.7166H80.2005ZM84.251 51.7132C84.4064 51.7132 84.5442 51.6839 84.6644 51.6252C84.7846 51.5637 84.8784 51.4786 84.9458 51.3701C85.0162 51.2587 85.0528 51.1283 85.0558 50.9787H86.2476C86.2447 51.313 86.1552 51.6106 85.9793 51.8715C85.8034 52.1295 85.5674 52.3333 85.2713 52.4828C84.9752 52.6294 84.6438 52.7027 84.2774 52.7027C83.9079 52.7027 83.5854 52.6411 83.3098 52.518C83.0372 52.3949 82.8099 52.2248 82.6282 52.0078C82.4464 51.7879 82.31 51.5329 82.2192 51.2426C82.1283 50.9494 82.0828 50.6357 82.0828 50.3015V50.1739C82.0828 49.8368 82.1283 49.523 82.2192 49.2328C82.31 48.9396 82.4464 48.6845 82.6282 48.4676C82.8099 48.2477 83.0372 48.0761 83.3098 47.953C83.5825 47.8299 83.9021 47.7683 84.2686 47.7683C84.6585 47.7683 85.0001 47.8431 85.2933 47.9926C85.5894 48.1421 85.821 48.3561 85.9881 48.6347C86.1582 48.9103 86.2447 49.2372 86.2476 49.6154H85.0558C85.0528 49.4571 85.0191 49.3134 84.9546 49.1844C84.8931 49.0554 84.8022 48.9528 84.682 48.8766C84.5647 48.7974 84.4196 48.7578 84.2466 48.7578C84.0619 48.7578 83.9109 48.7974 83.7936 48.8766C83.6763 48.9528 83.5854 49.0583 83.5209 49.1932C83.4564 49.3251 83.411 49.4761 83.3846 49.6462C83.3611 49.8133 83.3494 49.9892 83.3494 50.1739V50.3015C83.3494 50.4862 83.3611 50.6636 83.3846 50.8336C83.408 51.0037 83.452 51.1547 83.5165 51.2866C83.584 51.4185 83.6763 51.5226 83.7936 51.5988C83.9109 51.6751 84.0633 51.7132 84.251 51.7132ZM89.5504 51.5417V49.4219C89.5504 49.2694 89.5255 49.139 89.4756 49.0305C89.4258 48.9191 89.3481 48.8326 89.2425 48.771C89.1399 48.7094 89.0065 48.6787 88.8423 48.6787C88.7016 48.6787 88.5799 48.7036 88.4773 48.7534C88.3747 48.8003 88.2955 48.8692 88.2398 48.9601C88.1841 49.0481 88.1563 49.1522 88.1563 49.2724H86.8897C86.8897 49.0701 86.9366 48.878 87.0304 48.6962C87.1242 48.5145 87.2606 48.3547 87.4394 48.2169C87.6183 48.0761 87.8308 47.9662 88.0771 47.887C88.3263 47.8079 88.6049 47.7683 88.9127 47.7683C89.2821 47.7683 89.6105 47.8299 89.8978 47.953C90.1852 48.0761 90.4109 48.2609 90.5751 48.5071C90.7422 48.7534 90.8258 49.0613 90.8258 49.4307V51.4669C90.8258 51.7278 90.8419 51.9419 90.8742 52.109C90.9064 52.2732 90.9533 52.4168 91.0149 52.54V52.6147H89.7351C89.6735 52.4857 89.6266 52.3245 89.5944 52.131C89.5651 51.9345 89.5504 51.7381 89.5504 51.5417ZM89.7175 49.7166L89.7263 50.4334H89.0183C88.8511 50.4334 88.706 50.4525 88.5829 50.4906C88.4597 50.5287 88.3586 50.5829 88.2794 50.6533C88.2003 50.7207 88.1416 50.7999 88.1035 50.8908C88.0683 50.9817 88.0507 51.0814 88.0507 51.1898C88.0507 51.2983 88.0756 51.3965 88.1255 51.4845C88.1753 51.5695 88.2472 51.637 88.341 51.6868C88.4348 51.7337 88.5448 51.7572 88.6708 51.7572C88.8614 51.7572 89.0271 51.719 89.1678 51.6428C89.3085 51.5666 89.417 51.4728 89.4932 51.3614C89.5724 51.2499 89.6134 51.1444 89.6164 51.0447L89.9506 51.5812C89.9037 51.7015 89.8392 51.8261 89.7571 51.9551C89.6779 52.0841 89.5768 52.2057 89.4536 52.3201C89.3305 52.4315 89.1824 52.5239 89.0095 52.5972C88.8365 52.6675 88.6312 52.7027 88.3938 52.7027C88.0918 52.7027 87.8176 52.6426 87.5714 52.5224C87.328 52.3993 87.1345 52.2307 86.9908 52.0166C86.8501 51.7997 86.7797 51.5534 86.7797 51.2778C86.7797 51.0286 86.8267 50.8072 86.9205 50.6137C87.0143 50.4202 87.1521 50.2575 87.3339 50.1256C87.5186 49.9907 87.7487 49.8895 88.0243 49.8221C88.2999 49.7517 88.6195 49.7166 88.9831 49.7166H89.7175ZM94.6123 51.5768V45.8596H95.8877V52.6147H94.7399L94.6123 51.5768ZM91.6042 50.2927V50.2003C91.6042 49.8368 91.6452 49.5069 91.7273 49.2108C91.8094 48.9117 91.9296 48.6552 92.088 48.4412C92.2463 48.2271 92.4413 48.0615 92.6729 47.9442C92.9045 47.8269 93.1684 47.7683 93.4645 47.7683C93.743 47.7683 93.9864 47.8269 94.1945 47.9442C94.4056 48.0615 94.5845 48.2286 94.7311 48.4456C94.8806 48.6596 95.0008 48.9132 95.0917 49.2064C95.1826 49.4967 95.2486 49.8148 95.2896 50.1607V50.363C95.2486 50.6943 95.1826 51.0022 95.0917 51.2866C95.0008 51.571 94.8806 51.8202 94.7311 52.0342C94.5845 52.2453 94.4056 52.4095 94.1945 52.5268C93.9834 52.6441 93.7372 52.7027 93.4557 52.7027C93.1596 52.7027 92.8957 52.6426 92.6641 52.5224C92.4354 52.4022 92.2419 52.2336 92.0836 52.0166C91.9282 51.7997 91.8094 51.5446 91.7273 51.2514C91.6452 50.9582 91.6042 50.6386 91.6042 50.2927ZM92.8708 50.2003V50.2927C92.8708 50.4891 92.8854 50.6724 92.9148 50.8424C92.947 51.0125 92.9983 51.1635 93.0687 51.2954C93.142 51.4244 93.2358 51.5255 93.3502 51.5988C93.4674 51.6692 93.6096 51.7044 93.7767 51.7044C93.9937 51.7044 94.1726 51.656 94.3133 51.5593C94.454 51.4596 94.561 51.3232 94.6343 51.1503C94.7106 50.9773 94.7545 50.7779 94.7663 50.5521V49.976C94.7575 49.7913 94.7311 49.6257 94.6871 49.4791C94.6461 49.3295 94.5845 49.202 94.5024 49.0965C94.4232 48.9909 94.3235 48.9088 94.2033 48.8502C94.0861 48.7915 93.9468 48.7622 93.7855 48.7622C93.6214 48.7622 93.4806 48.8003 93.3633 48.8766C93.2461 48.9499 93.1508 49.051 93.0775 49.18C93.0071 49.309 92.9543 49.4615 92.9192 49.6374C92.8869 49.8104 92.8708 49.998 92.8708 50.2003ZM99.0674 52.7027C98.698 52.7027 98.3667 52.6441 98.0735 52.5268C97.7803 52.4066 97.5311 52.2409 97.3258 52.0298C97.1235 51.8187 96.9681 51.5739 96.8597 51.2954C96.7512 51.0139 96.6969 50.7149 96.6969 50.3982V50.2223C96.6969 49.8617 96.7482 49.5318 96.8509 49.2328C96.9535 48.9337 97.1001 48.6743 97.2906 48.4544C97.4842 48.2345 97.7187 48.0659 97.9943 47.9486C98.2699 47.8284 98.5807 47.7683 98.9267 47.7683C99.2638 47.7683 99.5629 47.824 99.8238 47.9354C100.085 48.0468 100.303 48.2052 100.479 48.4104C100.658 48.6156 100.793 48.8619 100.884 49.1492C100.975 49.4336 101.02 49.7503 101.02 50.0992V50.6269H97.2379V49.7825H99.7754V49.6858C99.7754 49.5099 99.7432 49.353 99.6787 49.2152C99.6171 49.0745 99.5233 48.9631 99.3972 48.881C99.2711 48.7989 99.1099 48.7578 98.9135 48.7578C98.7463 48.7578 98.6027 48.7945 98.4825 48.8678C98.3623 48.9411 98.264 49.0437 98.1878 49.1756C98.1145 49.3076 98.0588 49.4629 98.0207 49.6418C97.9855 49.8177 97.9679 50.0112 97.9679 50.2223V50.3982C97.9679 50.5888 97.9943 50.7647 98.0471 50.926C98.1028 51.0872 98.1805 51.2265 98.2802 51.3438C98.3828 51.461 98.5059 51.5519 98.6496 51.6164C98.7962 51.6809 98.9618 51.7132 99.1465 51.7132C99.3752 51.7132 99.5878 51.6692 99.7842 51.5812C99.9836 51.4904 100.155 51.354 100.299 51.1722L100.914 51.8407C100.815 51.9844 100.678 52.1222 100.505 52.2541C100.335 52.3861 100.13 52.4945 99.8898 52.5796C99.6494 52.6617 99.3752 52.7027 99.0674 52.7027ZM103.008 48.8414V52.6147H101.737V47.8563H102.929L103.008 48.8414ZM102.832 50.0684H102.48C102.48 49.7371 102.52 49.4322 102.599 49.1536C102.681 48.8722 102.8 48.6288 102.955 48.4236C103.113 48.2154 103.308 48.0542 103.54 47.9398C103.772 47.8255 104.04 47.7683 104.345 47.7683C104.556 47.7683 104.749 47.8005 104.925 47.8651C105.101 47.9266 105.252 48.0248 105.378 48.1597C105.507 48.2916 105.607 48.4646 105.677 48.6787C105.748 48.8898 105.783 49.1434 105.783 49.4395V52.6147H104.516V49.5802C104.516 49.3633 104.487 49.1961 104.428 49.0789C104.37 48.9616 104.286 48.8795 104.178 48.8326C104.072 48.7857 103.945 48.7622 103.795 48.7622C103.631 48.7622 103.487 48.7959 103.364 48.8634C103.244 48.9308 103.144 49.0246 103.065 49.1448C102.986 49.2621 102.927 49.3999 102.889 49.5582C102.851 49.7166 102.832 49.8866 102.832 50.0684ZM105.664 49.9233L105.211 49.9804C105.211 49.6696 105.249 49.3808 105.326 49.114C105.405 48.8472 105.521 48.6127 105.673 48.4104C105.828 48.2081 106.02 48.0512 106.249 47.9398C106.478 47.8255 106.742 47.7683 107.041 47.7683C107.269 47.7683 107.478 47.802 107.665 47.8694C107.853 47.934 108.013 48.038 108.145 48.1817C108.279 48.3224 108.382 48.5071 108.452 48.7358C108.526 48.9645 108.562 49.2445 108.562 49.5758V52.6147H107.291V49.5758C107.291 49.3559 107.262 49.1888 107.203 49.0745C107.148 48.9572 107.066 48.8766 106.957 48.8326C106.852 48.7857 106.726 48.7622 106.579 48.7622C106.426 48.7622 106.293 48.793 106.179 48.8546C106.064 48.9132 105.969 48.9953 105.893 49.1009C105.817 49.2064 105.759 49.3295 105.721 49.4703C105.683 49.6081 105.664 49.7591 105.664 49.9233ZM110.955 52.0782L112.217 47.8563H113.576L111.663 53.3316C111.622 53.4518 111.566 53.5808 111.496 53.7186C111.428 53.8564 111.336 53.9869 111.219 54.11C111.104 54.2361 110.959 54.3387 110.783 54.4179C110.61 54.497 110.398 54.5366 110.146 54.5366C110.025 54.5366 109.927 54.5293 109.851 54.5146C109.775 54.5 109.684 54.4794 109.578 54.4531V53.5251C109.611 53.5251 109.644 53.5251 109.679 53.5251C109.715 53.528 109.748 53.5295 109.781 53.5295C109.948 53.5295 110.084 53.5104 110.19 53.4723C110.295 53.4342 110.38 53.3756 110.445 53.2964C110.509 53.2202 110.56 53.1205 110.599 52.9974L110.955 52.0782ZM110.427 47.8563L111.461 51.3042L111.641 52.6455L110.779 52.7379L109.068 47.8563H110.427Z" fill="black"/>
</g>
<g filter="url(#filter1_d_225_1617)">
<path d="M19.4968 22.598V41H15.381V22.598H19.4968ZM15.1089 17.7679C15.1089 17.1443 15.313 16.6284 15.7212 16.2203C16.1407 15.8007 16.7189 15.591 17.4559 15.591C18.1816 15.591 18.7542 15.8007 19.1737 16.2203C19.5932 16.6284 19.8029 17.1443 19.8029 17.7679C19.8029 18.3802 19.5932 18.8904 19.1737 19.2986C18.7542 19.7068 18.1816 19.9109 17.4559 19.9109C16.7189 19.9109 16.1407 19.7068 15.7212 19.2986C15.313 18.8904 15.1089 18.3802 15.1089 17.7679Z" fill="white"/>
</g>
<g filter="url(#filter2_d_225_1617)">
<path d="M34.608 35.9148C34.608 35.5633 34.506 35.2458 34.3019 34.9624C34.0978 34.6789 33.718 34.4181 33.1624 34.18C32.6182 33.9306 31.8302 33.7038 30.7984 33.4997C29.8687 33.2957 29.0013 33.0405 28.1963 32.7344C27.4026 32.4169 26.711 32.0371 26.1214 31.5949C25.5431 31.1527 25.0896 30.6312 24.7608 30.0302C24.432 29.418 24.2676 28.7207 24.2676 27.9383C24.2676 27.1673 24.432 26.4417 24.7608 25.7614C25.1009 25.0811 25.5828 24.4802 26.2064 23.9586C26.8413 23.4257 27.6123 23.0119 28.5194 22.7171C29.4378 22.4109 30.4696 22.2579 31.6147 22.2579C33.2134 22.2579 34.5854 22.513 35.7305 23.0232C36.887 23.5334 37.7714 24.2364 38.3837 25.1321C39.0073 26.0165 39.3191 27.0256 39.3191 28.1594H34.421C34.421 27.6832 34.3189 27.258 34.1148 26.8839C33.9221 26.4984 33.6159 26.1979 33.1964 25.9825C32.7883 25.7557 32.2554 25.6423 31.5977 25.6423C31.0535 25.6423 30.583 25.7387 30.1861 25.9315C29.7893 26.1129 29.4832 26.3623 29.2677 26.6798C29.0636 26.9859 28.9616 27.3261 28.9616 27.7002C28.9616 27.9837 29.0183 28.2388 29.1317 28.4656C29.2564 28.681 29.4548 28.8794 29.7269 29.0608C29.999 29.2422 30.3505 29.4123 30.7814 29.571C31.2236 29.7184 31.7678 29.8545 32.4141 29.9792C33.7407 30.2513 34.9255 30.6085 35.9686 31.0507C37.0118 31.4815 37.8394 32.0711 38.4517 32.8195C39.064 33.5564 39.3701 34.5259 39.3701 35.7277C39.3701 36.5441 39.1887 37.2924 38.8259 37.9727C38.4631 38.653 37.9415 39.2482 37.2612 39.7585C36.5809 40.2573 35.7645 40.6485 34.8121 40.932C33.8711 41.2041 32.8109 41.3401 31.6318 41.3401C29.9197 41.3401 28.4684 41.034 27.2779 40.4217C26.0987 39.8095 25.203 39.0328 24.5907 38.0917C23.9898 37.1393 23.6893 36.1642 23.6893 35.1665H28.3323C28.355 35.8354 28.5251 36.374 28.8425 36.7822C29.1714 37.1903 29.5852 37.4851 30.0841 37.6666C30.5943 37.848 31.1442 37.9387 31.7338 37.9387C32.3687 37.9387 32.896 37.8536 33.3155 37.6836C33.735 37.5022 34.0525 37.264 34.2679 36.9693C34.4947 36.6631 34.608 36.3116 34.608 35.9148ZM48.0099 38.9251L52.891 22.598H58.1462L50.748 43.7722C50.5893 44.2371 50.3739 44.736 50.1018 45.2689C49.841 45.8017 49.4838 46.3063 49.0303 46.7825C48.5881 47.2701 48.0269 47.6669 47.3466 47.973C46.6776 48.2792 45.8556 48.4322 44.8805 48.4322C44.4156 48.4322 44.0358 48.4039 43.741 48.3472C43.4462 48.2905 43.0947 48.2111 42.6865 48.1091V44.5205C42.8113 44.5205 42.9417 44.5205 43.0777 44.5205C43.2138 44.5319 43.3442 44.5375 43.4689 44.5375C44.1152 44.5375 44.6424 44.4638 45.0506 44.3164C45.4587 44.169 45.7876 43.9423 46.037 43.6361C46.2864 43.3413 46.4849 42.9558 46.6323 42.4796L48.0099 38.9251ZM45.969 22.598L49.9657 35.9318L50.663 41.1191L47.3296 41.4762L40.7137 22.598H45.969ZM70.0514 35.9148C70.0514 35.5633 69.9494 35.2458 69.7453 34.9624C69.5412 34.6789 69.1614 34.4181 68.6058 34.18C68.0615 33.9306 67.2735 33.7038 66.2418 33.4997C65.312 33.2957 64.4446 33.0405 63.6396 32.7344C62.846 32.4169 62.1543 32.0371 61.5647 31.5949C60.9865 31.1527 60.533 30.6312 60.2041 30.0302C59.8753 29.418 59.7109 28.7207 59.7109 27.9383C59.7109 27.1673 59.8753 26.4417 60.2041 25.7614C60.5443 25.0811 61.0262 24.4802 61.6498 23.9586C62.2847 23.4257 63.0557 23.0119 63.9628 22.7171C64.8812 22.4109 65.913 22.2579 67.0581 22.2579C68.6568 22.2579 70.0287 22.513 71.1739 23.0232C72.3304 23.5334 73.2148 24.2364 73.827 25.1321C74.4507 26.0165 74.7625 27.0256 74.7625 28.1594H69.8643C69.8643 27.6832 69.7623 27.258 69.5582 26.8839C69.3654 26.4984 69.0593 26.1979 68.6398 25.9825C68.2316 25.7557 67.6987 25.6423 67.0411 25.6423C66.4969 25.6423 66.0263 25.7387 65.6295 25.9315C65.2327 26.1129 64.9265 26.3623 64.7111 26.6798C64.507 26.9859 64.405 27.3261 64.405 27.7002C64.405 27.9837 64.4617 28.2388 64.575 28.4656C64.6998 28.681 64.8982 28.8794 65.1703 29.0608C65.4424 29.2422 65.7939 29.4123 66.2248 29.571C66.6669 29.7184 67.2112 29.8545 67.8575 29.9792C69.184 30.2513 70.3689 30.6085 71.412 31.0507C72.4551 31.4815 73.2828 32.0711 73.8951 32.8195C74.5073 33.5564 74.8135 34.5259 74.8135 35.7277C74.8135 36.5441 74.6321 37.2924 74.2692 37.9727C73.9064 38.653 73.3849 39.2482 72.7046 39.7585C72.0243 40.2573 71.2079 40.6485 70.2555 40.932C69.3144 41.2041 68.2543 41.3401 67.0751 41.3401C65.363 41.3401 63.9118 41.034 62.7212 40.4217C61.5421 39.8095 60.6463 39.0328 60.0341 38.0917C59.4331 37.1393 59.1327 36.1642 59.1327 35.1665H63.7757C63.7984 35.8354 63.9684 36.374 64.2859 36.7822C64.6147 37.1903 65.0286 37.4851 65.5275 37.6666C66.0377 37.848 66.5876 37.9387 67.1772 37.9387C67.8121 37.9387 68.3393 37.8536 68.7589 37.6836C69.1784 37.5022 69.4958 37.264 69.7113 36.9693C69.938 36.6631 70.0514 36.3116 70.0514 35.9148ZM87.0078 22.598V26.0675H76.2931V22.598H87.0078ZM78.9463 18.0571H83.8444V35.4556C83.8444 35.9885 83.9124 36.3967 84.0485 36.6801C84.1959 36.9636 84.4113 37.162 84.6948 37.2754C84.9782 37.3774 85.3354 37.4285 85.7662 37.4285C86.0724 37.4285 86.3445 37.4171 86.5826 37.3944C86.832 37.3604 87.0418 37.3264 87.2118 37.2924L87.2289 40.898C86.8093 41.034 86.3558 41.1417 85.8683 41.2211C85.3807 41.3005 84.8422 41.3401 84.2526 41.3401C83.1754 41.3401 82.2344 41.1644 81.4293 40.8129C80.6357 40.4501 80.0234 39.8718 79.5925 39.0782C79.1617 38.2845 78.9463 37.2414 78.9463 35.9488V18.0571ZM98.2666 41.3401C96.838 41.3401 95.5568 41.1134 94.423 40.6599C93.2891 40.195 92.3254 39.5544 91.5317 38.738C90.7494 37.9217 90.1485 36.9749 89.7289 35.8978C89.3094 34.8093 89.0997 33.6528 89.0997 32.4283V31.748C89.0997 30.3534 89.2981 29.0778 89.6949 27.9213C90.0918 26.7648 90.6587 25.7614 91.3957 24.911C92.144 24.0607 93.051 23.4087 94.1168 22.9552C95.1826 22.4903 96.3845 22.2579 97.7224 22.2579C99.0263 22.2579 100.183 22.4733 101.192 22.9042C102.201 23.335 103.046 23.9473 103.726 24.741C104.418 25.5346 104.939 26.487 105.291 27.5982C105.642 28.698 105.818 29.9225 105.818 31.2718V33.3127H91.1916V30.0473H101.005V29.6731C101.005 28.9928 100.88 28.3862 100.631 27.8533C100.393 27.3091 100.03 26.8782 99.5422 26.5607C99.0546 26.2433 98.431 26.0845 97.6714 26.0845C97.0251 26.0845 96.4695 26.2263 96.0047 26.5097C95.5398 26.7932 95.16 27.19 94.8652 27.7002C94.5817 28.2105 94.3663 28.8114 94.2189 29.503C94.0828 30.1833 94.0148 30.9316 94.0148 31.748V32.4283C94.0148 33.1653 94.1168 33.8456 94.3209 34.4692C94.5364 35.0928 94.8368 35.6313 95.2223 36.0849C95.6192 36.5384 96.0954 36.8899 96.6509 37.1393C97.2179 37.3888 97.8585 37.5135 98.5728 37.5135C99.4572 37.5135 100.279 37.3434 101.039 37.0033C101.81 36.6518 102.473 36.1246 103.029 35.4216L105.41 38.0067C105.024 38.5623 104.497 39.0952 103.828 39.6054C103.17 40.1156 102.377 40.5351 101.447 40.8639C100.517 41.1814 99.4572 41.3401 98.2666 41.3401ZM113.505 26.4077V41H108.59V22.598H113.199L113.505 26.4077ZM112.825 31.1527H111.464C111.464 29.8715 111.617 28.6923 111.924 27.6152C112.241 26.5267 112.7 25.5857 113.301 24.792C113.913 23.987 114.667 23.3634 115.563 22.9212C116.459 22.479 117.496 22.2579 118.675 22.2579C119.492 22.2579 120.24 22.3826 120.92 22.632C121.601 22.8701 122.185 23.25 122.672 23.7715C123.171 24.2818 123.557 24.9507 123.829 25.7784C124.101 26.5948 124.237 27.5755 124.237 28.7207V41H119.339V29.2649C119.339 28.4259 119.225 27.7796 118.999 27.3261C118.772 26.8725 118.449 26.5551 118.029 26.3737C117.621 26.1922 117.128 26.1015 116.55 26.1015C115.915 26.1015 115.359 26.2319 114.883 26.4927C114.418 26.7535 114.032 27.1163 113.726 27.5812C113.42 28.0347 113.193 28.5676 113.046 29.1799C112.899 29.7921 112.825 30.4498 112.825 31.1527ZM123.778 30.5915L122.026 30.8126C122.026 29.6107 122.173 28.4939 122.468 27.4621C122.774 26.4304 123.222 25.5233 123.812 24.741C124.413 23.9586 125.155 23.352 126.04 22.9212C126.924 22.479 127.945 22.2579 129.101 22.2579C129.985 22.2579 130.79 22.3883 131.516 22.649C132.242 22.8985 132.86 23.301 133.37 23.8566C133.891 24.4008 134.288 25.1151 134.56 25.9995C134.844 26.8839 134.986 27.9667 134.986 29.2479V41H130.07V29.2479C130.07 28.3975 129.957 27.7513 129.73 27.3091C129.515 26.8555 129.197 26.5437 128.778 26.3737C128.37 26.1922 127.882 26.1015 127.315 26.1015C126.726 26.1015 126.21 26.2206 125.768 26.4587C125.325 26.6855 124.957 27.0029 124.662 27.4111C124.367 27.8193 124.146 28.2955 123.999 28.8397C123.851 29.3726 123.778 29.9565 123.778 30.5915Z" fill="black"/>
</g>
<defs>
<filter id="filter0_d_225_1617" x="52.5233" y="30.8485" width="76.064" height="38.6995" filterUnits="userSpaceOnUse" color-interpolation-filters="sRGB">
<feFlood flood-opacity="0" result="BackgroundImageFix"/>
<feColorMatrix in="SourceAlpha" type="matrix" values="0 0 0 0 0 0 0 0 0 0 0 0 0 0 0 0 0 0 127 0" result="hardAlpha"/>
<feOffset/>
<feGaussianBlur stdDeviation="7.50569"/>
<feComposite in2="hardAlpha" operator="out"/>
<feColorMatrix type="matrix" values="0 0 0 0 1 0 0 0 0 1 0 0 0 0 1 0 0 0 1 0"/>
<feBlend mode="normal" in2="BackgroundImageFix" result="effect1_dropShadow_225_1617"/>
<feBlend mode="normal" in="SourceGraphic" in2="effect1_dropShadow_225_1617" result="shape"/>
</filter>
<filter id="filter1_d_225_1617" x="0.0975046" y="0.579438" width="34.7169" height="55.4319" filterUnits="userSpaceOnUse" color-interpolation-filters="sRGB">
<feFlood flood-opacity="0" result="BackgroundImageFix"/>
<feColorMatrix in="SourceAlpha" type="matrix" values="0 0 0 0 0 0 0 0 0 0 0 0 0 0 0 0 0 0 127 0" result="hardAlpha"/>
<feOffset/>
<feGaussianBlur stdDeviation="7.50569"/>
<feComposite in2="hardAlpha" operator="out"/>
<feColorMatrix type="matrix" values="0 0 0 0 0.964706 0 0 0 0 0.972549 0 0 0 0 0.537255 0 0 0 1 0"/>
<feBlend mode="normal" in2="BackgroundImageFix" result="effect1_dropShadow_225_1617"/>
<feBlend mode="normal" in="SourceGraphic" in2="effect1_dropShadow_225_1617" result="shape"/>
</filter>
<filter id="filter2_d_225_1617" x="20.6869" y="16.2558" width="117.301" height="36.3796" filterUnits="userSpaceOnUse" color-interpolation-filters="sRGB">
<feFlood flood-opacity="0" result="BackgroundImageFix"/>
<feColorMatrix in="SourceAlpha" type="matrix" values="0 0 0 0 0 0 0 0 0 0 0 0 0 0 0 0 0 0 127 0" result="hardAlpha"/>
<feOffset dy="1.20091"/>
<feGaussianBlur stdDeviation="1.50114"/>
<feComposite in2="hardAlpha" operator="out"/>
<feColorMatrix type="matrix" values="0 0 0 0 1 0 0 0 0 0.987475 0 0 0 0 0.987475 0 0 0 0.25 0"/>
<feBlend mode="normal" in2="BackgroundImageFix" result="effect1_dropShadow_225_1617"/>
<feBlend mode="normal" in="SourceGraphic" in2="effect1_dropShadow_225_1617" result="shape"/>
</filter>
</defs>
</svg>
