<svg width="52" height="42" viewBox="0 0 52 42" fill="none" xmlns="http://www.w3.org/2000/svg">
<path d="M21.6897 29.6638V30.8491C21.6897 33.2297 23.6195 35.1595 26 35.1595H36.3448L43.1096 40.3868C43.2513 40.4963 43.4569 40.3953 43.4569 40.2163V35.1595H46.6897C49.0702 35.1595 51 33.2297 51 30.8491V15.7629C51 13.3824 49.0702 11.4526 46.6897 11.4526H38.069M8.5431 25.2457V30.2983C8.5431 30.4781 8.75023 30.5789 8.89166 30.4679L15.5474 25.2457H28.8017C31.1823 25.2457 33.1121 23.3159 33.1121 20.9353V5.31035C33.1121 2.92981 31.1823 1 28.8017 1H5.31035C2.92981 1 1 2.92981 1 5.31035V20.9353C1 23.3159 2.92981 25.2457 5.31034 25.2457H8.5431Z" stroke="black" stroke-width="2"/>
</svg>
