<svg width="82" height="16" viewBox="0 0 82 16" fill="none" xmlns="http://www.w3.org/2000/svg">
<path d="M1.904 0.799999V12H0.616V0.799999H1.904ZM9.05163 4.272C9.99029 4.272 10.7503 4.54933 11.3316 5.104C11.9183 5.65867 12.2116 6.392 12.2116 7.304V12H11.0196V7.696C11.0196 6.976 10.8276 6.416 10.4436 6.016C10.065 5.61067 9.52896 5.408 8.83563 5.408C8.17963 5.408 7.62763 5.62133 7.17963 6.048C6.73696 6.46933 6.51563 7.02933 6.51563 7.728V12H5.31563V4.424H6.49963V5.504C6.78763 5.07733 7.15829 4.76533 7.61163 4.568C8.06496 4.37067 8.54496 4.272 9.05163 4.272ZM20.933 5.104L20.413 6.032C20.1357 5.84 19.7703 5.67467 19.317 5.536C18.869 5.392 18.4077 5.32 17.933 5.32C17.389 5.32 16.9543 5.42667 16.629 5.64C16.3037 5.85333 16.141 6.144 16.141 6.512C16.141 7.09867 16.6557 7.45333 17.685 7.576L18.581 7.688C20.277 7.90667 21.125 8.61067 21.125 9.8C21.125 10.52 20.8237 11.0907 20.221 11.512C19.6183 11.9333 18.8077 12.144 17.789 12.144C16.5357 12.144 15.4823 11.8213 14.629 11.176L15.181 10.28C15.885 10.8293 16.7597 11.104 17.805 11.104C18.4557 11.104 18.965 11 19.333 10.792C19.7063 10.5787 19.893 10.2747 19.893 9.88C19.893 9.272 19.365 8.904 18.309 8.776L17.405 8.672C16.5677 8.57067 15.941 8.34133 15.525 7.984C15.109 7.62133 14.901 7.152 14.901 6.576C14.901 5.86667 15.1757 5.30667 15.725 4.896C16.2743 4.48533 17.0077 4.28 17.925 4.28C18.5063 4.28 19.0583 4.35467 19.581 4.504C20.1037 4.65333 20.5543 4.85333 20.933 5.104ZM28.7596 4.424V5.504H25.4876V9.328C25.4876 9.89867 25.6236 10.3253 25.8956 10.608C26.1676 10.8907 26.533 11.032 26.9916 11.032C27.5623 11.032 28.093 10.8533 28.5836 10.496L29.1436 11.4C28.4823 11.9013 27.733 12.152 26.8956 12.152C26.0636 12.152 25.421 11.92 24.9676 11.456C24.5196 10.9867 24.2956 10.2853 24.2956 9.352V5.504H22.6396V4.424H24.2956V2.016H25.4876V4.424H28.7596ZM38.4024 4.424V12H37.2104V10.872C36.549 11.7253 35.6264 12.152 34.4424 12.152C33.3704 12.152 32.4717 11.7787 31.7464 11.032C31.021 10.28 30.6584 9.33867 30.6584 8.208C30.6584 7.07733 31.021 6.13867 31.7464 5.392C32.4717 4.64533 33.3704 4.272 34.4424 4.272C35.621 4.272 36.5437 4.69867 37.2104 5.552V4.424H38.4024ZM34.5864 5.392C33.7864 5.392 33.133 5.664 32.6264 6.208C32.125 6.74667 31.8744 7.41333 31.8744 8.208C31.8744 9.00267 32.1277 9.672 32.6344 10.216C33.141 10.76 33.7917 11.032 34.5864 11.032C35.3704 11.032 36.0157 10.7653 36.5224 10.232C37.029 9.69333 37.2824 9.01867 37.2824 8.208C37.2824 7.40267 37.029 6.73333 36.5224 6.2C36.0157 5.66133 35.3704 5.392 34.5864 5.392ZM44.7791 4.272C45.9525 4.272 46.8538 4.70133 47.4831 5.56V4.424H48.6831V11.48C48.6831 12.6907 48.3151 13.632 47.5791 14.304C46.8431 14.9813 45.8751 15.32 44.6751 15.32C44.0671 15.32 43.4778 15.2293 42.9071 15.048C42.3418 14.872 41.8671 14.624 41.4831 14.304L42.0111 13.344C42.7951 13.936 43.6831 14.232 44.6751 14.232C45.5178 14.232 46.1951 13.9973 46.7071 13.528C47.2245 13.0587 47.4831 12.392 47.4831 11.528V10.752C46.8591 11.6107 45.9578 12.04 44.7791 12.04C43.7071 12.04 42.8138 11.6773 42.0991 10.952C41.3845 10.2213 41.0271 9.288 41.0271 8.152C41.0271 7.016 41.3845 6.08533 42.0991 5.36C42.8138 4.63467 43.7071 4.272 44.7791 4.272ZM44.9151 5.392C44.1258 5.392 43.4831 5.65867 42.9871 6.192C42.4911 6.72 42.2431 7.37333 42.2431 8.152C42.2431 8.936 42.4911 9.59467 42.9871 10.128C43.4831 10.656 44.1258 10.92 44.9151 10.92C45.6885 10.92 46.3258 10.6587 46.8271 10.136C47.3338 9.608 47.5871 8.94667 47.5871 8.152C47.5871 7.368 47.3338 6.712 46.8271 6.184C46.3258 5.656 45.6885 5.392 44.9151 5.392ZM55.3101 4.272C55.8648 4.272 56.3288 4.35733 56.7021 4.528L56.4141 5.704C56.0408 5.50133 55.6035 5.4 55.1021 5.4C54.5048 5.4 54.0168 5.616 53.6381 6.048C53.2595 6.48 53.0701 7.05067 53.0701 7.76V12H51.8781V4.424H53.0621V5.488C53.3235 5.09867 53.6461 4.8 54.0301 4.592C54.4195 4.37867 54.8461 4.272 55.3101 4.272ZM65.7743 4.424V12H64.5822V10.872C63.9209 11.7253 62.9982 12.152 61.8142 12.152C60.7422 12.152 59.8436 11.7787 59.1182 11.032C58.3929 10.28 58.0302 9.33867 58.0302 8.208C58.0302 7.07733 58.3929 6.13867 59.1182 5.392C59.8436 4.64533 60.7422 4.272 61.8142 4.272C62.9929 4.272 63.9156 4.69867 64.5822 5.552V4.424H65.7743ZM61.9582 5.392C61.1582 5.392 60.5049 5.664 59.9982 6.208C59.4969 6.74667 59.2462 7.41333 59.2462 8.208C59.2462 9.00267 59.4996 9.672 60.0062 10.216C60.5129 10.76 61.1636 11.032 61.9582 11.032C62.7422 11.032 63.3876 10.7653 63.8942 10.232C64.4009 9.69333 64.6542 9.01867 64.6542 8.208C64.6542 7.40267 64.4009 6.73333 63.8942 6.2C63.3876 5.66133 62.7422 5.392 61.9582 5.392ZM78.407 4.272C79.351 4.272 80.1137 4.54933 80.695 5.104C81.2817 5.65867 81.575 6.392 81.575 7.304V12H80.383V7.696C80.383 6.976 80.191 6.416 79.807 6.016C79.423 5.61067 78.8843 5.408 78.191 5.408C77.535 5.408 76.983 5.62133 76.535 6.048C76.0923 6.46933 75.871 7.02933 75.871 7.728V12H74.679V7.696C74.679 6.976 74.487 6.416 74.103 6.016C73.7243 5.61067 73.1883 5.408 72.495 5.408C71.839 5.408 71.287 5.62133 70.839 6.048C70.3963 6.46933 70.175 7.02933 70.175 7.728V12H68.975V4.424H70.159V5.504C70.447 5.07733 70.8177 4.76533 71.271 4.568C71.7243 4.37067 72.2043 4.272 72.711 4.272C73.367 4.272 73.943 4.41333 74.439 4.696C74.935 4.97333 75.3057 5.36267 75.551 5.864C75.8337 5.31467 76.231 4.912 76.743 4.656C77.2603 4.4 77.815 4.272 78.407 4.272Z" fill="black"/>
</svg>
