<svg width="221" height="60" viewBox="0 0 221 60" fill="none" xmlns="http://www.w3.org/2000/svg">
<path d="M59.7889 32.3021C19.5518 33.1521 0 59.5054 0 59.5054C0 59.5054 38.8203 39.3868 77.0738 59.5054L59.7889 32.3021Z" fill="#5C5C5C" fill-opacity="0.8"/>
<path d="M10.2009 43.3539L37.9702 0.283203L54.4051 24.323C34.2865 23.7563 10.2009 43.3539 10.2009 43.3539Z" fill="#5C5C5C" fill-opacity="0.8"/>
<path fill-rule="evenodd" clip-rule="evenodd" d="M60.0722 7.93407V0H57.2386V5.66719H54.405V0H47.8877L49.7553 2.8336H51.8547V6.01895L53.117 7.93407H54.405V9.88828L60.0722 18.4868V12.7512H57.2386V7.93407H60.0722ZM81.0408 0L80.9361 18.4184H62.339V0H81.0408ZM62.0814 21.5353H64.8893V25.7955L64.0392 24.5057L63.3888 23.5189L62.0814 21.5353ZM73.1003 34.5699V38.2536L71.9733 36.5436L71.4065 35.6838L70.6724 34.5699H73.1003ZM73.1003 34.5699V31.7363H68.8048L66.9372 28.9027H70.2731V21.5353H73.1003V26.6358H75.3736V34.5699H73.1003ZM80.7993 42.5039L80.7574 49.8713L78.2072 46.002V42.5039H80.7993ZM78.2072 42.5039H75.9017L74.0341 39.6703H78.2072V42.5039ZM78.2072 34.5699H80.8444L80.8605 31.7363H78.2072V34.5699ZM78.2072 29.186H80.8749V26.6358H78.2072V29.186ZM80.9055 23.8022H75.9403V21.5353H80.9184L80.9055 23.8022ZM64.8892 15.5848V2.55029H77.9237V15.5848H64.8892ZM67.7231 5.38396H75.6572V13.318H67.7231V5.38396Z" fill="#5C5C5C" fill-opacity="0.8"/>
<path fill-rule="evenodd" clip-rule="evenodd" d="M201.185 51.0047C211.827 51.0047 220.454 42.3779 220.454 31.7362C220.454 21.0946 211.827 12.4678 201.185 12.4678C190.544 12.4678 181.917 21.0946 181.917 31.7362C181.917 42.3779 190.544 51.0047 201.185 51.0047ZM201.185 42.4788C195.252 42.4788 190.443 37.6692 190.443 31.7362C190.443 25.8032 195.252 20.9936 201.185 20.9936C207.118 20.9936 211.928 25.8032 211.928 31.7362C211.928 37.6692 207.118 42.4788 201.185 42.4788ZM91.8086 50.1548L107.726 13.3181H114.831L130.748 50.1548H121.369L121.314 50.0218C119.639 45.9553 115.676 43.3015 111.278 43.3015C106.841 43.3015 102.838 46.0361 101.188 50.1548H91.8086ZM184.184 13.3181L180.773 20.1714H170.825V50.1548H162.866V20.1714H145.813V50.1548H137.854V20.1714H127.338V13.3181H184.184ZM111.136 25.3112L107.066 35.477C108.296 34.9956 109.625 34.7351 110.994 34.7351C112.545 34.7351 114.042 35.0651 115.403 35.6707L111.136 25.3112Z" fill="#5C5C5C" fill-opacity="0.8"/>
</svg>
