<svg width="25" height="25" viewBox="0 0 25 25" fill="none" xmlns="http://www.w3.org/2000/svg">
<path d="M12.5 0C5.59642 0 0 5.59642 0 12.5C0 19.4036 5.59642 25 12.5 25C19.4036 25 25 19.4036 25 12.5C25 5.59642 19.4036 0 12.5 0ZM18.294 8.50101C18.1058 10.4776 17.2919 15.2741 16.8776 17.4879C16.7024 18.4246 16.3574 18.7387 16.0234 18.7694C15.2976 18.8362 14.7463 18.2897 14.0432 17.8288C12.943 17.1077 12.3215 16.6587 11.2536 15.955C10.0195 15.1417 10.8195 14.6949 11.5228 13.9641C11.7069 13.7729 14.9052 10.8638 14.9671 10.5998C14.9748 10.5668 14.9823 10.4436 14.909 10.3789C14.8357 10.3142 14.728 10.3361 14.6502 10.3537C14.5398 10.3787 12.7823 11.5404 9.37757 13.8387C8.87875 14.1812 8.4269 14.3481 8.02203 14.3394C7.57571 14.3297 6.71719 14.087 6.07893 13.8795C5.29612 13.6251 4.67394 13.4906 4.72813 13.0584C4.75635 12.8333 5.06633 12.6031 5.65806 12.3679C9.30208 10.7803 11.732 9.73355 12.9478 9.22777C16.4192 7.78387 17.1405 7.53306 17.6106 7.5247C17.7141 7.52298 17.9453 7.54859 18.095 7.67011C18.1946 7.75668 18.2581 7.87748 18.2729 8.00862C18.2983 8.17145 18.3054 8.33661 18.294 8.50101Z" fill="black"/>
</svg>
