<svg width="74" height="16" viewBox="0 0 74 16" fill="none" xmlns="http://www.w3.org/2000/svg">
<path d="M9.376 0.799999V2.016H5.488V12H4.208V2.016H0.32V0.799999H9.376ZM13.359 4.272C14.3883 4.272 15.2363 4.63733 15.903 5.368C16.575 6.09867 16.9137 7.03733 16.919 8.184C16.919 8.34933 16.911 8.49867 16.895 8.632H10.823C10.903 9.42133 11.191 10.032 11.687 10.464C12.183 10.8907 12.7883 11.104 13.503 11.104C14.4097 11.104 15.2097 10.7867 15.903 10.152L16.543 10.968C15.7163 11.7573 14.679 12.152 13.431 12.152C12.3057 12.152 11.3857 11.7893 10.671 11.064C9.95633 10.3333 9.599 9.384 9.599 8.216C9.599 7.064 9.95367 6.12 10.663 5.384C11.3723 4.64267 12.271 4.272 13.359 4.272ZM13.335 5.336C12.6523 5.336 12.0897 5.54933 11.647 5.976C11.2043 6.40267 10.935 6.96533 10.839 7.664H15.703C15.6283 6.95467 15.375 6.38933 14.943 5.968C14.5163 5.54667 13.9803 5.336 13.335 5.336ZM20.7437 0.48V12H19.5437V0.48H20.7437ZM27.1278 4.272C28.1571 4.272 29.0051 4.63733 29.6718 5.368C30.3438 6.09867 30.6824 7.03733 30.6878 8.184C30.6878 8.34933 30.6798 8.49867 30.6638 8.632H24.5918C24.6718 9.42133 24.9598 10.032 25.4558 10.464C25.9518 10.8907 26.5571 11.104 27.2718 11.104C28.1784 11.104 28.9784 10.7867 29.6718 10.152L30.3118 10.968C29.4851 11.7573 28.4478 12.152 27.1998 12.152C26.0744 12.152 25.1544 11.7893 24.4398 11.064C23.7251 10.3333 23.3678 9.384 23.3678 8.216C23.3678 7.064 23.7224 6.12 24.4318 5.384C25.1411 4.64267 26.0398 4.272 27.1278 4.272ZM27.1038 5.336C26.4211 5.336 25.8584 5.54933 25.4158 5.976C24.9731 6.40267 24.7038 6.96533 24.6078 7.664H29.4718C29.3971 6.95467 29.1438 6.38933 28.7118 5.968C28.2851 5.54667 27.7491 5.336 27.1038 5.336ZM36.4885 4.272C37.6618 4.272 38.5632 4.70133 39.1925 5.56V4.424H40.3925V11.48C40.3925 12.6907 40.0245 13.632 39.2885 14.304C38.5525 14.9813 37.5845 15.32 36.3845 15.32C35.7765 15.32 35.1872 15.2293 34.6165 15.048C34.0512 14.872 33.5765 14.624 33.1925 14.304L33.7205 13.344C34.5045 13.936 35.3925 14.232 36.3845 14.232C37.2272 14.232 37.9045 13.9973 38.4165 13.528C38.9338 13.0587 39.1925 12.392 39.1925 11.528V10.752C38.5685 11.6107 37.6672 12.04 36.4885 12.04C35.4165 12.04 34.5232 11.6773 33.8085 10.952C33.0938 10.2213 32.7365 9.288 32.7365 8.152C32.7365 7.016 33.0938 6.08533 33.8085 5.36C34.5232 4.63467 35.4165 4.272 36.4885 4.272ZM36.6245 5.392C35.8352 5.392 35.1925 5.65867 34.6965 6.192C34.2005 6.72 33.9525 7.37333 33.9525 8.152C33.9525 8.936 34.2005 9.59467 34.6965 10.128C35.1925 10.656 35.8352 10.92 36.6245 10.92C37.3978 10.92 38.0352 10.6587 38.5365 10.136C39.0432 9.608 39.2965 8.94667 39.2965 8.152C39.2965 7.368 39.0432 6.712 38.5365 6.184C38.0352 5.656 37.3978 5.392 36.6245 5.392ZM47.0195 4.272C47.5742 4.272 48.0382 4.35733 48.4115 4.528L48.1235 5.704C47.7502 5.50133 47.3128 5.4 46.8115 5.4C46.2142 5.4 45.7262 5.616 45.3475 6.048C44.9688 6.48 44.7795 7.05067 44.7795 7.76V12H43.5875V4.424H44.7715V5.488C45.0328 5.09867 45.3555 4.8 45.7395 4.592C46.1288 4.37867 46.5555 4.272 47.0195 4.272ZM57.4836 4.424V12H56.2916V10.872C55.6303 11.7253 54.7076 12.152 53.5236 12.152C52.4516 12.152 51.553 11.7787 50.8276 11.032C50.1023 10.28 49.7396 9.33867 49.7396 8.208C49.7396 7.07733 50.1023 6.13867 50.8276 5.392C51.553 4.64533 52.4516 4.272 53.5236 4.272C54.7023 4.272 55.625 4.69867 56.2916 5.552V4.424H57.4836ZM53.6676 5.392C52.8676 5.392 52.2143 5.664 51.7076 6.208C51.2063 6.74667 50.9556 7.41333 50.9556 8.208C50.9556 9.00267 51.209 9.672 51.7156 10.216C52.2223 10.76 52.873 11.032 53.6676 11.032C54.4516 11.032 55.097 10.7653 55.6036 10.232C56.1103 9.69333 56.3636 9.01867 56.3636 8.208C56.3636 7.40267 56.1103 6.73333 55.6036 6.2C55.097 5.66133 54.4516 5.392 53.6676 5.392ZM70.1164 4.272C71.0604 4.272 71.823 4.54933 72.4044 5.104C72.991 5.65867 73.2844 6.392 73.2844 7.304V12H72.0924V7.696C72.0924 6.976 71.9004 6.416 71.5164 6.016C71.1324 5.61067 70.5937 5.408 69.9004 5.408C69.2444 5.408 68.6924 5.62133 68.2444 6.048C67.8017 6.46933 67.5804 7.02933 67.5804 7.728V12H66.3884V7.696C66.3884 6.976 66.1964 6.416 65.8124 6.016C65.4337 5.61067 64.8977 5.408 64.2044 5.408C63.5484 5.408 62.9964 5.62133 62.5484 6.048C62.1057 6.46933 61.8844 7.02933 61.8844 7.728V12H60.6844V4.424H61.8684V5.504C62.1564 5.07733 62.527 4.76533 62.9804 4.568C63.4337 4.37067 63.9137 4.272 64.4204 4.272C65.0764 4.272 65.6524 4.41333 66.1484 4.696C66.6444 4.97333 67.015 5.36267 67.2604 5.864C67.543 5.31467 67.9404 4.912 68.4524 4.656C68.9697 4.4 69.5244 4.272 70.1164 4.272Z" fill="black"/>
</svg>
