<svg width="25" height="25" viewBox="0 0 25 25" fill="none" xmlns="http://www.w3.org/2000/svg">
<path fill-rule="evenodd" clip-rule="evenodd" d="M12.5 25C19.4036 25 25 19.4036 25 12.5C25 5.59644 19.4036 0 12.5 0C5.59644 0 0 5.59644 0 12.5C0 19.4036 5.59644 25 12.5 25ZM15.6467 9.99175C16.7344 10.7703 18.0392 11.1875 19.3768 11.1843V8.52943C18.6529 8.52958 17.945 8.31678 17.3411 7.91752C16.9167 7.64401 16.5526 7.2868 16.2709 6.86772C15.9893 6.44864 15.7961 5.97652 15.7032 5.48022C15.6638 5.2579 15.6448 5.03243 15.6467 4.80664H12.973V15.4217C12.973 15.8996 12.822 16.3653 12.5416 16.7522C12.2612 17.1391 11.8657 17.4276 11.4116 17.5763C10.9574 17.7251 10.4679 17.7265 10.0129 17.5805C9.55792 17.4344 9.16071 17.1483 8.87801 16.763C8.5953 16.3778 8.44157 15.913 8.43875 15.4351C8.43594 14.9573 8.58419 14.4908 8.86233 14.1022C9.14048 13.7136 9.53429 13.4228 9.98754 13.2714C10.4408 13.12 10.9303 13.1157 11.3861 13.2591V10.528C10.39 10.3899 9.37538 10.5592 8.47804 11.0133C7.58071 11.4674 6.84339 12.1846 6.36468 13.0691C5.88597 13.9536 5.68868 14.9631 5.79921 15.9627C5.90973 16.9623 6.32279 17.9043 6.98316 18.6628C7.64353 19.4213 8.51972 19.9602 9.49459 20.2072C10.4695 20.4543 11.4965 20.3979 12.4385 20.0455C13.3804 19.6931 14.1923 19.0616 14.7656 18.2353C15.3389 17.409 15.6463 16.4274 15.6467 15.4217V9.99175Z" fill="black"/>
</svg>
