<svg width="25" height="25" viewBox="0 0 25 25" fill="none" xmlns="http://www.w3.org/2000/svg">
<path fill-rule="evenodd" clip-rule="evenodd" d="M12.5 25C19.4036 25 25 19.4036 25 12.5C25 5.59644 19.4036 0 12.5 0C5.59644 0 0 5.59644 0 12.5C0 19.4036 5.59644 25 12.5 25ZM19.1612 6.89517C19.8917 7.09168 20.467 7.67074 20.6623 8.40599C21.0171 9.73867 21.0171 12.5192 21.0171 12.5192C21.0171 12.5192 21.0171 15.2997 20.6623 16.6324C20.467 17.3676 19.8917 17.9226 19.1612 18.1191C17.8371 18.4762 12.5278 18.4762 12.5278 18.4762C12.5278 18.4762 7.21843 18.4762 5.89433 18.1191C5.16383 17.9226 4.58851 17.3676 4.39324 16.6324C4.03845 15.2997 4.03845 12.5192 4.03845 12.5192C4.03845 12.5192 4.03845 9.73867 4.39324 8.40599C4.58851 7.67074 5.16383 7.09171 5.89433 6.89517C7.21843 6.53809 12.5278 6.53809 12.5278 6.53809C12.5278 6.53809 17.8371 6.53809 19.1612 6.89517ZM15.2289 12.5193L10.7913 9.99469V15.0437L15.2289 12.5193Z" fill="black"/>
</svg>
